<?xml version="1.0" encoding="UTF-8" standalone="no" ?>
<!DOCTYPE svg PUBLIC "-//W3C//DTD SVG 1.1//EN" "http://www.w3.org/Graphics/SVG/1.1/DTD/svg11.dtd">
<svg xmlns="http://www.w3.org/2000/svg" xmlns:xlink="http://www.w3.org/1999/xlink" version="1.1" width="400" height="142.78026905829597" viewBox="0 0 400 142.78026905829597" xml:space="preserve">
<desc>Created with Fabric.js 5.3.0</desc>
<defs>
</defs>
<g transform="matrix(1 0 0 1 200 71.3901345291)" id="-JpFWVzODMMnzKw-I0VDM"  >
<path style="stroke: none; stroke-width: 1; stroke-dasharray: none; stroke-linecap: butt; stroke-dashoffset: 0; stroke-linejoin: miter; stroke-miterlimit: 4; fill: rgb(249,249,249); fill-rule: evenodd; opacity: 1;"  transform=" translate(-201.28616031, -76.6766068253)" d="M 54.02 24.726 C 53.882 24.892 53.844 34.997 53.875 62.934 L 53.917 100.917 L 58.333 100.917 L 62.75 100.917 L 62.87 99.75 C 62.936 99.108 63.076 97.533 63.18 96.25 C 63.567 91.484 63.5 91.688 64.228 93.082 C 65.165 94.876 68.391 98.372 69.5 98.795 C 69.637 98.847 69.933 99.03 70.156 99.202 C 71.169 99.979 73.919 101.088 76 101.559 C 78.712 102.172 78.943 102.193 82.083 102.117 C 85.177 102.042 85.807 101.984 87 101.663 C 87.321 101.577 88.108 101.381 88.749 101.229 C 89.391 101.076 90.028 100.894 90.166 100.823 C 90.671 100.563 91.999 100 92.107 100 C 92.168 100 92.813 99.656 93.542 99.236 C 100.363 95.302 104.312 88.558 105.344 79.083 C 105.662 76.161 105.306 70.109 104.682 67.833 C 104.594 67.512 104.474 67.063 104.414 66.833 C 104.354 66.604 104.243 66.267 104.166 66.083 C 104.09 65.9 103.985 65.504 103.933 65.203 C 103.642 63.504 101.731 59.657 100.026 57.339 C 97.775 54.279 92.369 50.167 90.598 50.167 C 90.45 50.167 90.199 50.1 90.039 50.019 C 87.331 48.641 80.645 48.36 75.75 49.417 C 75.255 49.524 74.686 49.735 74.127 50.019 C 73.968 50.1 73.73 50.167 73.597 50.167 C 73.251 50.167 69.846 51.93 69.42 52.33 C 69.223 52.515 68.991 52.667 68.903 52.667 C 68.419 52.667 65.268 56.075 64.551 57.375 C 64.31 57.81 64.051 58.167 63.974 58.167 C 63.896 58.167 63.833 50.682 63.833 41.533 C 63.833 28.819 63.786 24.853 63.633 24.7 C 63.326 24.392 54.277 24.417 54.02 24.726 M 128.083 49.095 C 126.315 49.428 125.946 49.512 125.583 49.668 C 125.4 49.747 124.763 49.977 124.167 50.179 C 122.858 50.623 119.5 52.304 119.5 52.516 C 119.5 52.599 119.419 52.667 119.319 52.667 C 118.266 52.667 111.667 59.765 111.667 60.898 C 111.667 60.958 111.493 61.286 111.281 61.628 C 111.069 61.97 110.719 62.7 110.504 63.25 C 110.288 63.8 110.061 64.325 109.998 64.417 C 109.896 64.567 109.237 66.67 108.824 68.167 C 107.777 71.96 107.784 78.857 108.84 82.833 C 109.306 84.589 109.904 86.452 110.147 86.903 C 110.299 87.186 110.523 87.705 110.645 88.057 C 111.012 89.121 112.875 92.126 114.016 93.497 C 115.346 95.094 118.361 97.833 118.789 97.833 C 118.87 97.833 119.083 97.967 119.26 98.131 C 119.716 98.551 121.567 99.534 122.75 99.985 C 123.3 100.194 123.9 100.43 124.083 100.508 C 128.352 102.327 137.003 102.326 141.25 100.507 C 141.433 100.429 141.921 100.239 142.333 100.086 C 144.695 99.212 148.013 96.818 149.309 95.053 C 150.22 93.814 150.22 93.816 150.122 99.872 C 150.072 102.921 149.955 105.642 149.862 105.917 C 149.769 106.192 149.53 106.979 149.33 107.667 C 148.469 110.636 146.312 113.379 143.561 115.004 C 142.789 115.46 142.075 115.833 141.975 115.833 C 141.875 115.833 141.334 115.978 140.772 116.155 C 138.424 116.894 138.265 116.917 135.417 116.914 C 132.651 116.911 132.355 116.873 130 116.223 C 125.518 114.985 121.533 110.444 121.503 106.542 L 121.5 106.167 L 115.018 106.167 C 109.985 106.167 108.518 106.213 108.457 106.375 C 108.355 106.642 108.708 108.704 109.147 110.41 C 109.483 111.714 109.662 112.256 110.086 113.25 C 110.203 113.525 110.47 114.162 110.679 114.667 C 110.888 115.171 111.196 115.782 111.363 116.026 C 111.53 116.269 111.667 116.518 111.667 116.579 C 111.667 116.691 112.647 118.179 112.823 118.333 C 112.875 118.379 113.02 118.617 113.146 118.861 C 113.496 119.541 115.921 122.089 117.152 123.071 C 128.191 131.874 148.18 130.44 156.467 120.25 C 158.221 118.093 158.455 117.752 159.642 115.631 C 160.271 114.505 161.304 111.927 161.666 110.578 C 163.007 105.582 162.917 107.982 162.917 77.5 L 162.917 50.417 L 157.038 50.373 L 151.16 50.329 L 150.981 50.79 C 150.882 51.043 150.691 52.563 150.556 54.167 C 150.421 55.771 150.241 57.155 150.155 57.242 C 150.058 57.341 150 57.328 150 57.205 C 150 55.634 144.724 51.268 141.417 50.101 C 140.958 49.94 140.433 49.747 140.25 49.673 C 138.223 48.853 131.15 48.518 128.083 49.095 M 186.75 49.069 C 185.833 49.189 184.858 49.339 184.583 49.402 C 183.817 49.577 182.787 49.858 182.417 49.992 C 182.233 50.059 181.558 50.288 180.917 50.501 C 175.779 52.207 171.028 56.305 169.518 60.333 C 169.398 60.654 169.235 61.067 169.157 61.25 C 168.507 62.764 167.782 67.013 168.089 67.509 C 168.147 67.603 170.383 67.667 173.587 67.667 C 179.668 67.667 179.333 67.742 179.333 66.375 C 179.333 63.739 181.427 61.194 184.583 59.994 C 186.77 59.162 187.319 59.083 190.917 59.084 C 194.702 59.085 195.159 59.169 197.4 60.275 C 200.227 61.67 201.578 64.123 201.696 68.073 L 201.75 69.895 L 200.667 70.104 C 200.071 70.219 199.025 70.317 198.343 70.323 C 197.661 70.329 196.686 70.406 196.177 70.494 C 195.667 70.583 193.637 70.736 191.667 70.834 C 186.288 71.102 184.11 71.333 181.25 71.94 C 179.298 72.354 178.834 72.49 177.542 73.022 C 177.29 73.126 176.933 73.266 176.75 73.332 C 170.37 75.649 166.786 80.93 166.801 87.99 C 166.82 96.925 171.859 102.737 180.75 104.082 C 184.486 104.647 191.504 104.029 192.917 103.012 C 193.008 102.946 193.399 102.801 193.785 102.691 C 196.696 101.859 201.043 98.253 201.935 95.93 C 202.12 95.447 202.3 95.658 202.387 96.458 C 202.434 96.894 202.554 98 202.652 98.917 C 202.751 99.833 202.914 101.091 203.014 101.711 L 203.198 102.838 L 208.89 102.794 L 214.583 102.75 L 214.583 85.333 C 214.583 72.505 214.531 67.675 214.385 67 C 214.276 66.496 214.105 65.572 214.004 64.948 C 213.249 60.261 210.123 55.216 206.515 52.859 C 206.002 52.525 205.546 52.207 205.5 52.154 C 205.316 51.939 202.692 50.7 201.833 50.423 C 201.329 50.26 200.786 50.06 200.627 49.98 C 200.468 49.899 200.191 49.833 200.012 49.833 C 199.833 49.833 199.646 49.768 199.597 49.689 C 199.548 49.609 199.187 49.498 198.795 49.441 C 198.404 49.385 197.708 49.26 197.25 49.164 C 195.9 48.881 188.677 48.815 186.75 49.069 M 244.583 49.091 C 242.853 49.382 242.162 49.561 241.494 49.895 C 241.194 50.044 240.829 50.167 240.683 50.167 C 239.571 50.167 235.689 52.977 234.07 54.954 C 232.86 56.431 232.945 56.435 232.684 54.875 C 232.565 54.165 232.406 53.358 232.329 53.083 C 232.252 52.808 232.139 52.171 232.076 51.667 C 232.014 51.163 231.887 50.656 231.794 50.542 C 231.511 50.191 220.07 50.245 219.934 50.597 C 219.879 50.742 219.833 62.554 219.833 76.847 L 219.833 102.833 L 226.417 102.833 L 233 102.833 L 233 87.105 C 233 70.664 233.048 69.409 233.742 67.917 C 233.869 67.642 234.136 67.005 234.334 66.502 C 234.532 65.998 234.749 65.548 234.816 65.502 C 234.883 65.455 235.17 65.079 235.453 64.667 C 237.375 61.862 241.93 60.09 245.598 60.721 C 249.821 61.446 252.355 63.539 253.502 67.25 C 253.615 67.617 253.792 68.067 253.895 68.25 C 254.031 68.49 254.097 73.394 254.132 85.708 L 254.181 102.833 L 260.674 102.833 L 267.167 102.833 L 267.167 87.952 C 267.167 72.761 267.229 70.95 267.842 68.417 C 270.228 58.558 284.658 57.597 287.71 67.094 C 288.519 69.609 288.5 69.15 288.5 86.407 L 288.5 102.833 L 294.917 102.833 L 301.333 102.833 L 301.333 84.196 C 301.333 62.791 301.307 62.426 299.519 58.855 C 298.152 56.125 296.91 54.505 295 52.957 C 293.649 51.862 290.619 50.167 290.014 50.167 C 289.859 50.167 289.662 50.105 289.575 50.029 C 288.013 48.67 278.232 48.452 275.167 49.707 C 274.293 50.065 274.066 50.149 273.5 50.322 C 273.179 50.42 272.654 50.666 272.333 50.868 C 272.012 51.071 271.487 51.359 271.165 51.509 C 269.456 52.305 266.565 55.312 265.489 57.414 C 264.957 58.453 264.674 58.522 264.254 57.713 C 260.785 51.024 253.104 47.658 244.583 49.091 M 327.478 49.244 C 327.42 49.302 326.858 49.417 326.228 49.5 C 325.598 49.582 324.746 49.725 324.333 49.815 C 323.921 49.906 323.212 50.061 322.757 50.158 C 321.267 50.479 317.554 51.923 317.02 52.39 C 316.872 52.52 316.487 52.757 316.167 52.916 C 314.098 53.942 310.361 57.507 308.916 59.833 C 308.66 60.246 308.396 60.621 308.33 60.667 C 308.264 60.712 308.062 61.05 307.88 61.417 C 307.698 61.783 307.394 62.383 307.204 62.75 C 306.873 63.388 306.114 65.047 305.831 65.75 C 305.605 66.311 305.483 66.721 305.332 67.417 C 305.253 67.783 305.108 68.383 305.011 68.75 C 303.832 73.193 303.831 79.876 305.009 84.25 C 305.107 84.617 305.256 85.234 305.338 85.622 C 305.967 88.57 308.892 93.591 311.487 96.175 C 312.84 97.523 315.904 100 316.217 100 C 316.273 100 316.716 100.235 317.201 100.521 C 317.686 100.808 318.346 101.136 318.667 101.25 C 318.987 101.364 319.587 101.612 320 101.801 C 321.043 102.278 322.206 102.645 323.042 102.761 C 323.431 102.815 323.9 102.924 324.083 103.003 C 325.863 103.768 335.927 103.753 336.742 102.983 C 336.829 102.901 337.129 102.831 337.408 102.827 C 338.103 102.819 339.703 102.424 340.75 102.002 C 340.933 101.928 341.496 101.704 342 101.503 C 347.682 99.244 352.19 94.665 354.145 89.167 C 354.68 87.661 355.144 85.941 355.055 85.792 C 355.014 85.723 352.368 85.667 349.175 85.667 L 343.37 85.667 L 343.018 86.415 C 342.825 86.826 342.665 87.22 342.663 87.29 C 342.646 87.937 339.104 91.479 338.457 91.497 C 338.387 91.498 337.974 91.657 337.54 91.85 C 337.105 92.042 336.6 92.263 336.417 92.341 C 334.626 93.097 328.776 93.339 326.25 92.761 C 321.681 91.715 318.671 88.809 317.087 83.917 C 316.471 82.013 316.185 79.863 316.52 79.651 C 316.648 79.57 325.226 79.504 335.788 79.503 L 354.827 79.5 L 354.926 79.104 C 355.204 77.998 354.802 71.1 354.352 69.25 C 354.263 68.883 354.069 68.021 353.922 67.333 C 353.774 66.646 353.572 65.858 353.473 65.583 C 352.976 64.205 352.049 62.128 351.475 61.11 C 351.122 60.483 350.833 59.935 350.833 59.892 C 350.833 59.791 349.918 58.609 349.168 57.74 C 348.846 57.368 348.427 56.88 348.236 56.657 C 346.803 54.979 343.063 52.296 341.153 51.575 C 340.748 51.422 340.164 51.185 339.855 51.048 C 338.885 50.618 336.841 50.054 335.667 49.893 C 335.346 49.849 334.933 49.746 334.75 49.664 C 334.14 49.391 327.702 49.019 327.478 49.244 M 377.5 49.326 C 377.271 49.403 376.667 49.474 376.158 49.483 C 375.65 49.493 375.162 49.567 375.075 49.65 C 374.988 49.732 374.617 49.836 374.25 49.882 C 373.241 50.006 371.408 50.451 370.795 50.721 C 370.495 50.852 369.837 51.123 369.333 51.322 C 368.369 51.702 367.141 52.32 367 52.496 C 366.954 52.553 366.565 52.802 366.135 53.051 C 364.881 53.775 361.667 57.149 361.667 57.742 C 361.667 57.796 361.49 58.12 361.275 58.462 C 360.895 59.066 360.395 60.391 360.035 61.75 C 359.214 64.847 359.382 67.804 360.569 71.206 C 361.801 74.732 365.835 78.082 370.333 79.312 C 370.746 79.424 371.421 79.619 371.833 79.745 C 372.819 80.045 376.048 80.829 377 80.999 C 377.412 81.073 378.462 81.319 379.333 81.546 C 380.204 81.772 381.217 82.009 381.583 82.072 C 382.707 82.265 384.253 82.767 385.726 83.416 C 388.998 84.858 389.509 89.454 386.661 91.838 C 385.868 92.502 383.749 93.5 383.133 93.5 C 382.956 93.5 382.679 93.571 382.516 93.658 C 382.354 93.745 381.341 93.857 380.266 93.907 C 374.782 94.163 370.874 91.798 370.345 87.905 C 370.151 86.471 370.427 86.532 364.114 86.518 C 357.723 86.504 358.1 86.409 358.152 88.027 C 358.326 93.423 361.889 98.591 367.167 101.102 C 369.686 102.301 370.48 102.591 371.708 102.761 C 372.098 102.815 372.567 102.924 372.75 103.003 C 374.332 103.683 381.492 103.798 384.583 103.193 C 387.272 102.667 388.533 102.314 389.796 101.736 C 390.28 101.514 390.758 101.333 390.858 101.333 C 391.334 101.333 394.909 98.944 395.833 98.007 C 396.82 97.008 398.087 95.443 398.334 94.917 C 398.463 94.642 398.664 94.3 398.78 94.158 C 398.896 94.016 399.218 93.35 399.496 92.677 L 400 91.454 L 400 86.671 L 400 81.888 L 399.375 80.667 C 398.445 78.85 398.432 78.831 397.386 77.74 C 395.446 75.717 390.434 73.167 388.399 73.167 C 388.177 73.167 387.865 73.099 387.706 73.016 C 387.282 72.796 386.287 72.527 384.5 72.15 C 382.902 71.812 382.298 71.67 381.083 71.343 C 380.717 71.244 379.817 71.049 379.083 70.909 C 373.462 69.835 370.768 66.921 371.864 63.103 C 372.762 59.971 377.029 58.197 381.647 59.033 C 384.587 59.565 386.932 61.989 387.287 64.861 L 387.417 65.917 L 393.417 65.917 L 399.417 65.917 L 399.395 64.75 C 399.376 63.714 399.308 63.257 398.936 61.68 C 398.772 60.982 398.128 59.091 397.995 58.917 C 397.925 58.825 397.666 58.385 397.418 57.939 C 396.355 56.025 394.064 53.597 392.472 52.699 C 392.097 52.487 391.687 52.211 391.561 52.085 C 391.435 51.958 391.163 51.803 390.957 51.739 C 390.752 51.675 390.023 51.365 389.338 51.05 C 388.653 50.735 387.716 50.399 387.255 50.303 C 386.794 50.208 386.267 50.068 386.083 49.993 C 384.814 49.471 378.515 48.982 377.5 49.326 M 2.78 50.275 C 2.3 50.756 2.735 86.02 3.245 87.875 C 3.377 88.356 3.532 88.938 3.59 89.167 C 3.647 89.396 3.755 89.733 3.828 89.917 C 3.902 90.1 4.059 90.587 4.178 91 C 4.296 91.412 4.725 92.388 5.131 93.167 C 8.235 99.133 13.653 102.166 21.206 102.167 C 22.648 102.167 24.148 102.092 24.539 102.001 C 27.616 101.283 28.841 100.952 29.417 100.681 C 29.783 100.508 30.455 100.202 30.91 100 C 33.159 98.999 36.44 96.268 37.603 94.428 C 37.867 94.01 38.127 93.667 38.18 93.667 C 38.309 93.667 38.616 95.383 38.849 97.417 C 38.954 98.333 39.087 99.496 39.145 100 L 39.25 100.917 L 43.625 100.961 L 48 101.006 L 48 75.584 L 48 50.162 L 43.208 50.206 L 38.417 50.25 L 38.318 65.5 C 38.251 75.732 38.157 81.052 38.031 81.667 C 37.008 86.686 34.872 90.252 32.035 91.678 C 31.787 91.802 31.396 92.026 31.167 92.174 C 30.938 92.323 30.15 92.602 29.417 92.795 C 21.891 94.775 16.068 92.573 13.876 86.917 C 12.573 83.557 12.614 84.172 12.509 66.167 L 12.417 50.25 L 7.655 50.206 C 5.037 50.182 2.843 50.213 2.78 50.275 M 83.804 58.019 C 84.599 58.213 85.325 58.425 85.417 58.491 C 85.508 58.556 85.958 58.747 86.417 58.914 C 89.539 60.057 92.701 63.433 94.147 67.167 C 94.448 67.946 94.761 68.75 94.842 68.953 C 95.8 71.373 95.755 79.151 94.767 82.059 C 92.74 88.017 89.329 91.463 84.167 92.768 C 81.656 93.402 75.851 93.162 73.917 92.344 C 69.126 90.319 66.482 87.314 64.667 81.833 C 63.555 78.476 63.76 69.882 64.995 68.083 C 65.058 67.992 65.248 67.542 65.417 67.083 C 66.402 64.418 68.445 61.807 70.729 60.295 C 71.107 60.044 71.492 59.779 71.583 59.705 C 71.754 59.568 73.076 58.932 73.828 58.625 C 76.312 57.612 80.974 57.329 83.804 58.019 M 332.75 60.076 C 336.313 60.722 338.63 62.178 340.454 64.917 C 341.037 65.792 341.283 66.399 342.009 68.762 C 342.096 69.043 342.167 69.737 342.167 70.303 L 342.167 71.333 L 329.444 71.333 C 322.447 71.333 316.683 71.294 316.635 71.246 C 316.324 70.936 317.818 66.692 318.697 65.387 C 318.955 65.003 319.167 64.626 319.167 64.548 C 319.167 64.469 319.56 64.023 320.042 63.555 C 322.304 61.357 323.964 60.537 327.333 59.951 C 328.32 59.78 331.523 59.853 332.75 60.076 M 138.218 60.347 C 141.687 60.869 145.069 62.884 146.958 65.554 C 147.907 66.895 148.715 68.628 149.071 70.083 C 149.227 70.725 149.426 71.521 149.511 71.853 C 149.597 72.184 149.667 73.713 149.667 75.25 C 149.667 76.787 149.597 78.316 149.511 78.647 C 149.426 78.979 149.226 79.775 149.067 80.417 C 148.908 81.058 148.724 81.696 148.657 81.833 C 146.452 86.392 144.58 88.231 140.583 89.763 C 138.294 90.641 132.525 90.689 130.583 89.846 C 128.065 88.752 127.256 88.247 125.781 86.848 C 123.67 84.846 122.184 82.064 121.671 79.159 C 121.566 78.568 121.41 77.764 121.324 77.373 C 121.113 76.417 121.125 74.168 121.348 72.927 C 121.904 69.838 122.016 69.477 123.101 67.289 C 125.723 62 131.518 59.339 138.218 60.347 M 201.972 80.667 C 202.273 89.308 197.46 94.408 189 94.413 C 182.809 94.417 180 92.263 180 87.51 C 180 82.25 183.829 80.189 194.917 79.481 C 196.567 79.375 198.629 79.235 199.5 79.169 C 202.141 78.968 201.908 78.827 201.972 80.667" stroke-linecap="round" />
</g>
</svg>